<svg width="256" height="257" viewBox="0 0 256 257" fill="none" xmlns="http://www.w3.org/2000/svg">
<path d="M4.48179 101.898C4.48179 101.359 4.66106 100.642 4.66106 100.104C4.66106 100.821 4.66106 101.359 4.48179 101.898Z" fill="#191E2B"/>
<path d="M16.493 64.9418L14.7003 68.171C14.7003 68.3504 14.521 68.3504 14.521 68.5298C14.3417 68.8886 14.1625 69.2474 13.9832 69.6062C14.1625 69.4268 14.1625 69.068 14.3417 68.8886C13.9832 69.4268 13.8039 69.965 13.6246 70.5032L12.549 72.8353C12.7283 72.6559 12.7283 72.4765 12.9076 72.2971C11.6527 74.9881 10.3978 77.8585 9.5014 80.9082C6.45378 92.9278 5.19888 105.844 4.84034 127.91C6.9916 87.0077 12.7283 72.8353 14.7003 68.171C15.2381 67.0946 15.9552 66.0182 16.493 64.9418Z" fill="#191E2B"/>
<path d="M3.58543 97.5922C3.22689 99.2067 2.86835 100.821 2.5098 102.256L2.33053 103.153C1.61345 107.638 3.04762 116.967 4.84034 127.91C4.66106 127.013 4.66106 126.116 4.48179 125.04C2.5098 107.1 2.86835 101.898 3.58543 97.5922Z" fill="#191E2B"/>
<path d="M1.07563 110.868C0.896358 112.303 0.717087 114.097 0.537815 115.352C0.537815 115.532 0.537815 115.711 5.01961 127.91C1.2549 113.738 1.2549 112.303 1.2549 110.509C1.07563 110.509 1.07563 110.688 1.07563 110.868Z" fill="#191E2B"/>
<path d="M248.471 171.324C248.65 170.966 248.65 170.786 248.829 170.427C249.546 168.095 250.443 165.404 251.16 163.072C251.877 160.919 252.594 157.87 253.132 155.537C245.961 185.138 229.826 210.254 205.087 230.526L212.078 224.785C212.796 224.067 213.513 223.529 214.23 222.811C216.381 220.659 218.891 218.147 221.401 215.636C222.835 214.021 224.627 212.048 226.958 209.357C228.034 207.922 229.289 206.307 230.543 204.692C240.762 190.52 244.706 180.833 248.471 171.324Z" fill="#191E2B"/>
<path d="M0.179272 121.452C0.179272 121.631 0 121.811 0 121.99C0 123.246 0 124.143 0 124.143C0 124.861 0 125.758 0 126.655C0 125.219 0.179272 125.04 1.07563 124.502C2.68908 124.861 2.68908 124.861 5.19888 127.731C1.61345 121.811 0.896359 121.631 0.179272 121.452Z" fill="#191E2B"/>
<path d="M174.79 247.389C230.185 223.888 251.339 165.046 254.924 144.235C254.924 144.056 254.924 144.056 254.924 143.877C255.104 142.8 255.283 141.365 255.283 140.289L255.462 138.136C255.462 138.136 255.462 138.136 255.462 137.957C254.387 150.156 229.468 234.472 152.919 253.488C153.994 253.309 155.07 253.13 156.146 252.95C161.524 251.515 168.515 249.362 173.714 247.568C174.252 247.568 174.431 247.389 174.79 247.389Z" fill="#191E2B"/>
<path d="M0.896359 131.498C1.97199 128.628 2.68908 128.449 5.01961 127.91C0.179271 125.758 0.179272 130.242 0 134.01C0 135.445 0.179272 137.239 0.358543 138.495V139.93C0.179272 137.957 0 133.83 0.896359 131.498Z" fill="#191E2B"/>
<path d="M255.821 130.781C255.821 130.242 255.821 129.884 255.821 129.345V128.987C255.821 128.448 255.821 127.91 255.821 127.372C255.821 126.834 255.821 126.475 255.821 125.937C255.641 135.624 202.936 274.837 95.9104 252.412C98.958 253.13 103.081 253.847 105.95 254.565C109.894 255.103 115.092 255.641 119.036 256.179C215.126 258.332 254.566 143.518 255.821 130.781Z" fill="#191E2B"/>
<path d="M1.97199 151.77C1.97199 151.95 2.15126 152.308 2.15126 152.488C-0.537815 136.88 3.40616 130.422 4.84034 127.91C-4.76837e-07 132.395 0.179272 140.109 1.97199 151.77Z" fill="#191E2B"/>
<path d="M64.8964 239.675C173.894 296.185 250.801 137.957 255.641 118.94C255.641 118.761 255.641 118.761 255.641 118.582V117.685C255.641 117.505 255.641 117.505 255.641 117.326C255.641 116.429 255.462 115.173 255.283 114.276C255.283 114.097 255.283 114.097 255.283 113.917C238.252 136.342 228.93 163.61 210.644 185.317C201.681 195.902 180.706 220.659 152.56 235.19C96.2689 264.252 60.5938 238.419 45.1765 225.682C45.7143 226.041 46.2521 226.579 46.7899 226.938L49.2997 229.09C53.9608 232.499 60.2353 236.625 65.0756 239.675C64.8964 239.675 64.8964 239.675 64.8964 239.675Z" fill="#191E2B"/>
<path d="M3.22689 157.511V157.331C3.22689 157.511 3.40616 157.69 3.40616 157.87C3.76471 159.305 4.30252 161.099 4.66106 162.534C5.37815 165.404 6.63305 169.172 7.70868 172.042C8.42577 173.657 9.14286 175.989 9.85994 177.783C10.7563 179.756 12.0112 182.447 12.9076 184.42C13.8039 186.394 15.2381 189.085 16.3137 191.058C17.5686 193.39 19.3613 196.081 20.9748 198.593C38.5434 224.247 66.8683 244.339 98.5994 241.648C173.714 235.01 225.165 149.976 244.706 117.864C251.339 106.741 251.339 106.741 254.028 106.203V106.024C253.669 104.23 253.311 102.077 252.952 100.283V100.104C252.773 99.5655 251.877 99.0273 251.339 98.6685C248.471 100.104 246.499 102.974 236.459 118.402C210.465 158.049 180.706 197.875 138.398 221.197C42.6667 273.402 -6.81232 171.504 4.84034 127.91C1.61345 136.342 1.2549 146.747 3.22689 157.511Z" fill="#191E2B"/>
<path d="M225.524 113.2C242.555 89.1605 246.678 83.2404 250.443 90.9545V90.7751C250.084 89.5193 249.546 88.2635 249.188 87.0077C248.829 86.1107 248.65 85.2137 248.291 84.3167C243.272 73.5529 236.28 82.8816 219.787 105.486C201.501 130.422 178.734 161.278 145.389 187.65C46.9692 265.149 -1.61344 182.447 5.01961 128.09C-8.42577 189.623 77.6246 322.736 225.524 113.2Z" fill="#191E2B"/>
<path d="M206.342 99.0273C227.854 70.862 235.922 60.2775 243.989 74.2705C243.989 74.0911 243.81 74.0911 243.81 73.9117C242.734 71.5795 241.12 68.7092 240.045 66.377C233.77 55.4338 226.241 59.9187 219.249 66.1976C189.849 92.7484 170.487 127.91 141.804 154.999C49.479 242.186 3.58543 183.703 4.84034 127.91C-0.358543 184.779 62.7451 286.318 206.342 99.0273Z" fill="#191E2B"/>
<path d="M188.594 77.3203C210.106 50.59 221.58 40.9026 233.232 55.2544C231.44 52.7428 229.109 49.6931 227.137 47.1815C226.062 45.9257 224.986 44.6699 223.91 43.4142C213.692 32.2915 208.314 38.5704 142.342 113.379C46.9692 221.915 13.2661 172.939 6.09524 137.598C12.1905 169.71 43.0252 259.229 188.594 77.3203Z" fill="#191E2B"/>
<path d="M5.01961 129.345C5.19888 132.036 5.7367 134.727 6.27451 137.777C5.55742 134.01 5.19888 130.96 5.01961 129.345Z" fill="#191E2B"/>
<path d="M4.84034 127.91C4.84034 127.91 4.84034 128.448 5.01961 129.345C5.01961 128.807 4.84034 128.449 4.84034 127.91Z" fill="#191E2B"/>
<path d="M146.465 82.3434C182.14 37.8528 198.633 21.1689 216.381 35.7001C216.202 35.5207 216.202 35.5207 216.022 35.3413C213.513 33.0091 210.286 30.3182 207.955 28.1654C207.955 28.1654 207.776 28.1654 207.776 27.986C191.104 15.2488 173.714 27.4478 133.199 79.6524C27.4286 215.815 7.70868 143.697 4.84034 127.91C6.27451 139.392 22.7675 236.266 146.465 82.3434Z" fill="#191E2B"/>
<path d="M117.961 73.1941C155.429 22.9629 174.79 8.96987 193.972 18.4779C193.255 18.1191 192.717 17.7603 192.179 17.4015L191.641 17.0427C191.283 16.8633 190.745 16.5046 190.387 16.3252L184.829 13.4548C184.112 13.096 183.395 12.7372 182.678 12.3784C156.683 1.07638 125.849 43.5936 105.232 71.9383C38.3641 163.969 13.8039 153.205 4.84034 127.91C10.577 149.438 32.8067 187.291 117.961 73.1941Z" fill="#191E2B"/>
<path d="M88.7395 70.6826C119.754 26.7302 140.37 0.358795 166.185 5.92011C165.289 5.74072 164.392 5.38192 163.496 5.20252C160.269 4.30554 156.683 3.40855 153.815 2.69096C128.179 -1.07638 108.459 25.4744 78.7003 69.068C58.9804 97.951 22.2297 151.591 4.84034 127.91C22.2297 165.046 72.2465 94.0042 88.7395 70.6826Z" fill="#191E2B"/>
<path d="M65.972 67.4534C98.0616 17.9397 112.762 1.07638 134.812 0.179397C134.454 0.179397 133.916 0.179397 133.557 0.179397L128.179 0L122.98 0.179397C122.443 0.179397 121.725 0.179397 121.188 0.179397C97.8823 2.15277 78.7003 33.0091 54.6779 72.1177C37.6471 99.5655 18.2857 130.781 4.84034 127.91C18.465 140.827 47.1485 96.6952 65.972 67.4534Z" fill="#191E2B"/>
<path d="M45.535 70.6826C71.3501 25.1156 83.8992 7.89348 102.902 2.51156C99.6751 3.22915 95.5518 4.30554 91.9664 5.20252C91.2493 5.38192 90.5322 5.56132 89.8151 5.74072C70.6331 13.096 56.6499 38.0322 34.0616 81.0876C18.1064 111.585 11.8319 121.631 4.84034 127.91C15.0588 124.322 27.7871 101.898 45.535 70.6826Z" fill="#191E2B"/>
<path d="M73.1429 12.3784C72.7843 12.5578 72.4258 12.7372 72.0672 12.9166L66.8684 15.4282L63.8207 17.2221C63.2829 17.5809 62.7451 17.9397 62.2073 18.1191C53.0644 24.0392 46.2521 34.6237 38.3641 49.8725C25.2773 74.9881 16.3137 101.898 5.01961 127.91C10.0392 119.837 16.8515 104.947 25.4566 86.1107C48.4034 36.4177 58.2633 20.9895 73.1429 12.3784Z" fill="#191E2B"/>
<path d="M48.2241 27.8066C47.8655 27.986 47.6863 28.3448 47.3277 28.5242C47.1485 28.7036 46.9692 28.883 46.7899 29.0624C46.6106 29.2418 46.2521 29.4212 46.0728 29.6006C43.9216 31.5739 41.591 33.5473 39.619 35.3413C28.1457 46.4639 16.493 77.6791 4.84034 127.91C27.7871 51.6664 38.3641 36.9559 48.2241 27.8066Z" fill="#191E2B"/>
<path d="M27.4286 48.7961C25.9944 50.59 24.5602 52.7428 23.126 54.3574C22.9468 54.7162 22.5882 55.075 22.409 55.4338C14.7003 67.4534 8.78431 91.8514 4.84034 127.91C8.2465 105.486 15.5966 65.48 28.6835 47.1815C28.3249 47.7197 27.7871 48.2579 27.4286 48.7961Z" fill="#191E2B"/>
<path d="M4.84034 99.5655C5.19888 96.5158 5.73669 93.6454 6.45378 90.7751C7.35014 85.5725 7.52941 85.0343 8.78431 81.0876C8.78431 81.267 8.60504 81.267 8.60504 81.4464C7.88796 83.4198 6.9916 85.9313 6.27451 87.9047C4.84034 92.569 4.48179 98.1303 4.30252 104.409C4.30252 104.05 4.30252 103.871 4.48179 103.512C4.12325 106.741 3.94398 110.15 3.94398 113.379C4.12325 118.582 4.30252 119.299 4.84034 127.552C4.30252 114.635 4.48179 108.535 4.84034 99.5655ZM4.48179 101.898C4.48179 101.359 4.66106 100.642 4.66106 100.104C4.66106 100.821 4.66106 101.359 4.48179 101.898Z" fill="#191E2B"/>
</svg>
